# xmcd CD database file
#
# Track frame offsets:
#	150
#	20400
#	42450
#	60070
#	79830
#	100342
#	120375
#	139085
#	161912
#	170647
#	186222
#	210185
#	229227
#	249217
#
# Disc length: 3738 seconds
#
# Revision: 4
# Processed by: cddbd v1.5.2PL0 Copyright (c) Steve Scherf et al.
# Submitted via: CDex 1.51
#
DISCID=b10e980e
DTITLE=Black Label Society - Sonic Brew
DYEAR=1998
DGENRE=Heavy Metal
TTITLE0=Bored To Tears
TTITLE1=The Rose Petalled Garden
TTITLE2=Hep You (Batch Of Lies)
TTITLE3=Born To Lose
TTITLE4=Peddlers Of Death
TTITLE5=Mother Mary
TTITLE6=Beneath The Tree
TTITLE7=Low Down
TTITLE8=T.A.Z
TTITLE9=Black Pearl
TTITLE10=World Of Trouble
TTITLE11=Spoke In The Wheel
TTITLE12=The Beginning...At Last
TTITLE13=No More Tears
EXTD=YEAR: 1998
EXTT0=
EXTT1=
EXTT2=
EXTT3=
EXTT4=
EXTT5=
EXTT6=
EXTT7=
EXTT8=
EXTT9=
EXTT10=
EXTT11=
EXTT12=
EXTT13=
PLAYORDER=
